<?xml version="1.0" encoding="UTF-8"?>
<svg width="1024mm" height="250mm" version="1.1" viewBox="0 0 1024 250" xmlns="http://www.w3.org/2000/svg">
  <title>Komayō</title>
  <g fill="#ccc" stroke-width="35.535">
    <path d="m169.13 196.39h-47.047c0-4.4122-8.1052-19.615-24.315-45.608-17.265-27.72-29.494-41.58-36.688-41.58h-4.3162c0 21.869 0.52751 50.932 1.5827 87.191h-40.573c1.2469-28.967 1.8704-61.627 1.8704-97.978 0-34.913-0.62344-64.695-1.8704-89.347h40.573c-1.0551 26.569-1.5827 51.507-1.5827 74.814h3.1653c4.2203 0 14.868-11.798 31.941-35.393 16.594-22.924 21.258-36.065 21.258-39.422h46.508c0 3.1653-8.7762 15.107-26.329 35.825-18.129 21.389-31.366 35.009-39.71 40.861v2.1582c9.7832 5.0836 25.178 24.028 46.183 56.831 19.567 30.501 29.351 47.718 29.351 51.651z" aria-label="K"/>
    <path d="m327.96 119.42q5.95 35.765-12.696 59.578-18.646 23.813-48.449 28.771-28.385 4.7223-51.726-10.209-23.364-15.073-28.914-48.426-5.9736-35.906 12.791-59.886 18.764-23.978 48.568-28.937 28.244-4.6986 51.49 10.541 23.364 15.073 28.937 48.568zm-36.334 10.42q-3.4236-20.58-15.389-32.882-11.988-12.445-27.458-9.8714-15.044 2.5029-22.381 17.141-7.195 14.616-3.9364 34.201 3.4236 20.579 15.412 33.023 11.965 12.303 27.434 9.7295 15.044-2.5028 22.239-17.118 7.3369-14.639 4.0783-34.224z" aria-label="o"/>
    <path d="m568.62 188.04h-38.127c2.0143-24.267 3.0213-47.862 3.0213-70.783 0-17.169-2.2062-28.392-6.6183-33.667-4.4122-5.2754-11.462-7.913-21.149-7.913-7.7692 0-15.97 2.8296-24.603 8.4884-0.38364 11.989-0.57551 22.732-0.57551 32.228 0 16.018 0.28775 39.901 0.86326 71.652h-38.558c2.1102-26.282 3.1653-51.843 3.1653-76.684 0-12.853-1.8224-22.013-5.4672-27.481-3.5489-5.4672-10.982-8.2007-22.3-8.2007-10.455 0-19.135 3.5009-26.042 10.503 0.47963 37.983 0.71938 71.937 0.71938 101.86h-38.703c1.7265-29.926 2.5898-53.521 2.5898-70.783 0-22.444-3.8484-39.792-8.5482-60.607l38.33-8.3095 2.4459 15.25h2.3019c12.469-11.318 26.521-16.978 42.155-16.978 19.567 0 33.332 5.6591 41.292 16.978h2.302c14.195-11.318 28.248-16.978 42.155-16.978 16.306 0 28.583 3.5489 36.832 10.647 8.3446 7.0021 12.518 19.759 12.518 38.271 0 1.8224-0.0962 5.3234-0.28776 10.503-0.19154 5.0836-0.28775 8.5369-0.28775 10.359 0 16.018 0.19154 39.901 0.5754 71.652z" aria-label="m"/>
    <path d="m709.7 182.14-33.035 3.3959c-1.5675-4.0159-3.2728-9.6221-3.2993-12.884l-1.8703 0.0133c-10.477 9.1023-24.683 13.726-42.619 13.874-11.989 0.0973-21.992-3.1299-30.006-9.6832-7.9197-6.6494-11.925-15.49-12.014-26.519-0.11867-14.579 5.9221-26.57 18.123-35.974 12.298-9.4047 33.885-14.52 64.765-15.349 0.17772-1.7281 0.26055-3.3594 0.24794-4.8939-0.0841-10.359-2.6338-17.148-7.6478-20.368-5.0149-3.3163-14.189-4.9199-27.52-4.8111-14.483 0.1182-28.614 2.152-42.395 6.1014l2.949-26.498c13.008-4.6145 31.405-7.0187 55.191-7.2129 17.36-0.14174 30.771 3.3937 40.229 10.607 9.5552 7.2116 14.407 19.929 14.556 38.152 0.0332 4.0284-0.10064 11.368-0.3958 22.016-0.20083 10.649-0.28643 17.747-0.2579 21.296 0.16246 19.854 1.8296 36.099 5.0021 48.735zm-38.658-29.612c-0.68113-12.943-1.0601-24.115-1.1369-33.515-32.706 0.26718-48.992 8.6966-48.856 25.291 0.094 11.413 7.3336 17.062 21.72 16.945 11.318-0.0918 20.742-2.999 28.273-8.7198z" aria-label="a"/>
    <path d="m861.32 49.018c0 6.2346-6.8582 25.993-20.574 59.276-15.634 38.271-25.274 64.36-28.918 78.268-6.2346 23.979-14.628 40.525-25.178 49.637-10.167 8.8246-25.418 13.237-45.752 13.237l-20.002 0.48858c11.893 0 34.867-19.855 42.541-26.665 7.6731-6.7144 15.445-27.537 15.445-38.855 0-11.414-8.6323-36.352-25.898-74.814-17.265-38.558-25.898-58.749-25.898-60.571h44.457c0 3.3571 4.3642 19.615 13.093 48.774 8.7285 29.158 13.093 47 13.093 53.521h2.0143c0-5.5631 3.9326-21.965 11.798-49.205 7.9607-27.337 11.942-45.033 11.942-53.09z" aria-label="y"/>
    <path d="m1024 136.79c0 24.172-7.4336 43.067-22.3 56.686-14.868 13.62-32.372 17.861-52.515 17.861-19.183 0-35.633-3.6178-49.349-15.991-13.715-12.469-20.574-29.974-20.574-52.515 0-24.267 7.4814-43.258 22.444-56.974 14.963-13.715 32.516-20.574 52.659-20.574 19.088 0 35.442 6.2825 49.061 18.848 13.715 12.469 20.574 30.022 20.574 52.659zm-37.552 4.3163c0-13.908-3.2612-25.562-9.7839-34.962-6.5224-9.4955-15.011-14.244-25.466-14.244-10.167 0-18.464 4.4122-24.89 13.237-6.3305 8.8245-9.4955 19.855-9.4955 33.092 0 13.908 3.2612 25.61 9.7832 35.106 6.5224 9.4 15.438 11.959 25.895 11.959 10.167 0 17.987-2.2715 24.319-11.096 6.4265-8.8246 9.6394-19.855 9.6394-33.092zm4.7478-124.88-0.0133 25.034h-90.613l0.35201-25.034z" aria-label="ō"/>
  </g>
  <g stroke-width="35.535">
    <path d="m151.36 187.32h-47.047c0-4.4122-8.1053-19.615-24.315-45.608-17.265-27.72-29.494-41.58-36.688-41.58h-4.3162c0 21.869 0.52751 50.932 1.5827 87.191h-40.573c1.2469-28.967 1.8704-61.627 1.8704-97.978 0-34.913-0.62344-64.695-1.8704-89.347h40.573c-1.0551 26.569-1.5827 51.507-1.5827 74.814h3.1653c4.2203 0 14.868-11.798 31.941-35.393 16.594-22.924 21.258-36.065 21.258-39.422h46.508c0 3.1653-8.7762 15.107-26.329 35.825-18.129 21.389-31.366 35.009-39.71 40.861v2.1582c9.7832 5.0836 25.178 24.028 46.183 56.831 19.567 30.501 29.351 47.718 29.351 51.651z" aria-label="K"/>
    <path d="m310.2 110.36q5.95 35.765-12.696 59.578-18.646 23.813-48.449 28.771-28.385 4.7223-51.726-10.209-23.364-15.073-28.914-48.426-5.9736-35.906 12.791-59.886 18.764-23.978 48.568-28.937 28.244-4.6986 51.49 10.541 23.364 15.073 28.937 48.568zm-36.334 10.42q-3.4236-20.58-15.389-32.882-11.988-12.445-27.458-9.8714-15.044 2.5029-22.381 17.141-7.195 14.616-3.9365 34.201 3.4236 20.579 15.412 33.023 11.965 12.303 27.434 9.7295 15.044-2.5028 22.239-17.118 7.3369-14.639 4.0783-34.224z" aria-label="o"/>
    <path d="m550.86 178.97h-38.127c2.0143-24.267 3.0213-47.862 3.0213-70.783 0-17.169-2.2062-28.392-6.6183-33.667-4.4122-5.2754-11.462-7.913-21.149-7.913-7.7692 0-15.97 2.8296-24.603 8.4884-0.38363 11.989-0.57551 22.732-0.57551 32.228 0 16.018 0.28776 39.901 0.86327 71.652h-38.558c2.1102-26.282 3.1653-51.843 3.1653-76.684 0-12.853-1.8224-22.013-5.4672-27.481-3.5489-5.4672-10.982-8.2007-22.3-8.2007-10.455 0-19.135 3.5009-26.042 10.503 0.47952 37.983 0.71939 71.937 0.71939 101.86h-38.703c1.7265-29.926 2.5898-53.521 2.5898-70.783 0-22.444-3.8484-39.792-8.5482-60.607l38.33-8.3095 2.4459 15.25h2.3019c12.469-11.318 26.521-16.978 42.155-16.978 19.567 0 33.332 5.6591 41.292 16.978h2.302c14.195-11.318 28.248-16.978 42.155-16.978 16.306 0 28.583 3.5489 36.832 10.647 8.3446 7.0021 12.518 19.759 12.518 38.271 0 1.8224-0.0962 5.3234-0.28775 10.503-0.19154 5.0836-0.28776 8.5369-0.28776 10.359 0 16.018 0.19155 39.901 0.5754 71.652z" aria-label="m"/>
    <path d="m691.93 173.07-33.035 3.3959c-1.5675-4.0159-3.2728-9.6221-3.2993-12.884l-1.8703 0.0133c-10.477 9.1023-24.683 13.726-42.619 13.874-11.989 0.0973-21.992-3.1299-30.006-9.6832-7.9197-6.6494-11.925-15.49-12.014-26.519-0.11866-14.579 5.9221-26.57 18.123-35.974 12.298-9.4047 33.885-14.52 64.765-15.349 0.17772-1.7281 0.26055-3.3594 0.24795-4.8939-0.084-10.359-2.6338-17.148-7.6478-20.368-5.0149-3.3163-14.189-4.9199-27.52-4.8111-14.483 0.1182-28.614 2.152-42.395 6.1014l2.949-26.498c13.008-4.6145 31.405-7.0187 55.191-7.2129 17.36-0.14174 30.771 3.3937 40.229 10.607 9.5552 7.2116 14.407 19.929 14.556 38.152 0.0332 4.0284-0.10064 11.368-0.3958 22.016-0.20084 10.649-0.28643 17.747-0.2579 21.296 0.16246 19.854 1.8296 36.099 5.0021 48.735zm-38.658-29.612c-0.68112-12.943-1.0601-24.115-1.1369-33.515-32.706 0.26717-48.992 8.6966-48.856 25.291 0.094 11.413 7.3336 17.062 21.72 16.945 11.318-0.0918 20.742-2.999 28.273-8.7198z" aria-label="a"/>
    <path d="m843.55 39.95c0 6.2346-6.8582 25.993-20.574 59.276-15.634 38.271-25.274 64.36-28.918 78.268-6.2346 23.979-14.628 40.525-25.178 49.637-10.167 8.8246-25.418 13.237-45.752 13.237l-20.002 0.48858c11.893 0 34.867-19.855 42.541-26.665 7.6731-6.7144 15.445-27.537 15.445-38.855 0-11.414-8.6323-36.352-25.898-74.814-17.265-38.558-25.898-58.749-25.898-60.571h44.457c0 3.3571 4.3642 19.615 13.093 48.774 8.7285 29.158 13.093 47 13.093 53.521h2.0143c0-5.5631 3.9326-21.965 11.798-49.205 7.9607-27.337 11.942-45.033 11.942-53.09z" aria-label="y"/>
    <path d="m1006.2 127.73c0 24.172-7.4336 43.067-22.3 56.686-14.868 13.62-32.372 17.861-52.515 17.861-19.183 0-35.633-3.6178-49.349-15.991-13.715-12.469-20.574-29.974-20.574-52.515 0-24.267 7.4814-43.258 22.444-56.974 14.963-13.715 32.516-20.574 52.659-20.574 19.088 0 35.442 6.2825 49.061 18.848 13.715 12.469 20.574 30.022 20.574 52.659zm-37.552 4.3163c0-13.908-3.2612-25.562-9.7839-34.962-6.5224-9.4955-15.011-14.244-25.466-14.244-10.167 0-18.464 4.4122-24.89 13.237-6.3305 8.8245-9.4955 19.855-9.4955 33.092 0 13.908 3.2612 25.61 9.7832 35.106 6.5224 9.4 15.438 11.959 25.895 11.959 10.167 0 17.987-2.2715 24.319-11.096 6.4265-8.8246 9.6394-19.855 9.6394-33.092zm4.7478-124.88-0.01327 25.034h-90.613l0.35201-25.034z" aria-label="ō"/>
  </g>
</svg>
