<?xml version="1.0" encoding="UTF-8"?>
<svg width="45.746mm" height="51.704mm" version="1.1" viewBox="0 0 45.746 51.704" xmlns="http://www.w3.org/2000/svg">
  <title>Komayō - Episode 6</title>
  <path d="m35.68 31.73a13.497 18.178 0 0 1-13.497 18.178 13.497 18.178 0 0 1-13.497-18.178 13.497 18.178 0 0 1 13.497-18.178 13.497 18.178 0 0 1 13.497 18.178z" fill="#f9f9f7" fill-rule="evenodd" stroke-width=".18141"/>
  <g stroke-width=".16674">
    <path d="m15 8.75c-2.1176 0.46687-3.885 1.2506-4.9188 2.151-0.93374 0.81702-1.0505 0.96709-1.1672 1.4006-0.11672 0.50022-0.81703 1.2005-1.1839 1.2005-0.13339 0-0.28346 0.10004-0.33348 0.23344-0.05 0.13339-0.25011 0.28345-0.4502 0.33348-0.43352 0.10004-2.201 1.9008-2.8012 2.8512-0.51689 0.80035-1.484 2.8512-1.484 3.1514 0 0.10004-0.0667 0.26678-0.15007 0.36682-0.20009 0.21677-1.1005 3.068-1.4173 4.5687-0.15007 0.68363-0.46687 1.8675-0.68363 2.6011l-0.41685 1.3673v22.71h15.173l-0.10004-1.4173c-0.10004-1.2005-0.0834-1.4173 0.13339-1.4173 0.30013 0 0.85037 0.56692 0.68363 0.71698-0.05 0.0667-0.0167 0.11672 0.0834 0.11672 0.20009 0 0.51689 0.85037 0.56692 1.5507l0.0334 0.46687 3.4348-0.05 3.4182-0.05 1.3339-0.71698c0.73366-0.3835 1.4006-0.70031 1.484-0.70031s0.10004 0.33348 0.05 0.75033l-0.11672 0.75033h16.04l-0.10004-0.41685c-0.05-0.23344-0.15007-0.61694-0.20009-0.88372-0.0834-0.43353-0.0834-0.43353 0.16674-0.13339 0.15007 0.18341 0.31681 0.56691 0.36683 0.88372 0.0834 0.4502 0.18341 0.55024 0.51689 0.55024h0.40018l-0.05-5.8859c-0.0334-3.835-0.11672-5.986-0.23344-6.136-0.0834-0.1334-0.16674-0.50022-0.15007-0.81703 0.0167-0.31681-0.0334-0.71698-0.11672-0.86705-0.0834-0.15006-0.25011-0.90039-0.40018-1.6674-0.26678-1.4006-0.46687-2.2677-1.3673-5.5524-0.46687-1.7008-0.767-3.2181-0.61694-3.068 0.0333 0.0334 0.25011 0.40018 0.48355 0.81703 0.46687 0.81703 0.51689 0.767 0.25011-0.25011-0.0834-0.36683-0.20009-0.9004-0.25011-1.1672-0.05-0.28346-0.25011-0.75033-0.43352-1.0338-0.16674-0.30013-0.28346-0.61694-0.21676-0.71698 0.05-0.0834 0.0167-0.16674-0.0667-0.16674-0.10004 0-0.18341-0.0834-0.18341-0.20009 0-0.56691-0.91707-3.0347-1.4173-3.8183-0.31681-0.48355-0.58359-0.98377-0.58359-1.0838 0-0.18342-0.25011-0.66696-1.3506-2.5678-0.13339-0.23344-0.65029-0.95042-1.1672-1.584-0.50022-0.65029-1.2005-1.6174-1.534-2.1676-0.78368-1.2839-1.0171-1.5507-2.0342-2.2677-0.93374-0.65029-2.0509-1.2005-3.9184-1.9008-0.68363-0.25011-1.4006-0.51689-1.584-0.60026-0.40018-0.16674-2.5678-0.28346-7.0031-0.40018-2.5511-0.05-3.5849-0.0167-4.4186 0.16674zm4.7688 9.0373c0.25011 0.80035 0.31681 0.88372 0.80035 0.90039 0.8337 0.0334 1.1672-0.0333 1.4673-0.30013 0.15007-0.13339 0.36683-0.20009 0.4502-0.13339 0.10004 0.05 0.18341 0.0167 0.18341-0.0834 0-0.10004 0.0667-0.15007 0.15007-0.10004 0.0834 0.05 0.11672 0.25011 0.0667 0.43352-0.05 0.18341 0 0.33348 0.10004 0.33348s0.18341 0.0667 0.18341 0.15007c0 0.0667 0.53357 0.71698 1.2005 1.4173 0.65029 0.7003 1.5173 1.8175 1.9342 2.4844 0.81703 1.2839 1.8675 3.4849 1.8675 3.8684 0 0.13339-0.30013 0.31681-0.70031 0.43352-1.4673 0.38351-2.6345 1.3172-2.6345 2.0676v0.35015l1.5507-0.3835c2.3177-0.56691 2.351-0.56691 2.9513 0.61694 0.26678 0.55024 0.50022 1.0338 0.50022 1.0838s-0.28346 0.0834-0.63361 0.0834c-1.4173 0-3.2181 1.1005-2.9513 1.8008 0.05 0.13339-0.0167 0.36683-0.13339 0.5169-0.25011 0.28345-0.31681 0.90039-0.0834 0.75033 0.0667-0.05 0.25011 0.23343 0.41685 0.61693 0.25011 0.63362 0.28346 0.66696 0.40018 0.35016 0.0834-0.20009 0.23344-0.3835 0.35015-0.3835 0.91707-0.11672 1.3172-0.10005 1.3839 0.0333 0.05 0.0667 0.23344 0 0.40018-0.16674 0.20009-0.20008 0.51689-0.30013 0.8337-0.28345 0.28346 0.0167 0.51689-0.0167 0.51689-0.10005 0-0.0667 0.26678-0.11672 0.61694-0.0834 0.51689 0.0333 0.63361 0.11672 0.85037 0.61694 0.13339 0.31681 0.35015 1.4506 0.46687 2.5011 0.13339 1.0505 0.26678 2.0842 0.31681 2.2843 0.0667 0.25011-0.0334 0.50022-0.28346 0.75033-0.46687 0.46687-1.4673 1.7008-2.8846 3.5516-1.7174 2.251-3.2514 3.9017-4.0851 4.3853-0.41685 0.23344-0.80035 0.5169-0.86705 0.61694-0.0834 0.10004-0.13339 0.05-0.13339-0.13339 0-0.23344-0.15007-0.28346-0.81703-0.28346-0.56692 0-0.85037 0.0667-0.91707 0.25011-0.10004 0.28346-0.56692 0.31681-1.1338 0.10004-0.21676-0.0834-0.95042-0.36682-1.6341-0.61693-2.1509-0.76701-5.5524-3.2181-5.6692-4.0851-0.0667-0.4502 0-0.66696 0.16674-0.56692 0.20009 0.13339 0.20009-0.26678-0.0167-1.2506-0.0834-0.41685-0.18341-0.9004-0.20009-1.0838-0.0333-0.18341-0.18341-0.60026-0.33348-0.91707-0.3835-0.85037-0.68363-4.9855-0.3835-5.2857 0.15007-0.15006 3.4015 0.4502 4.3352 0.80035 0.46687 0.16674 0.8337 0.30014 0.85037 0.26679 0.0167-0.0167 0.10004-0.31681 0.20009-0.65029 0.18341-0.60026 0.15007-0.65028-0.48355-1.3839-0.80035-0.9004-1.7841-1.2506-3.5682-1.2506-0.75033 0-1.2506-0.0834-1.3673-0.21676-0.25011-0.30013-0.31681-2.3844-0.0834-2.3344 0.11672 0.0333 0.23344-0.10005 0.30013-0.26679 0.15007-0.46687 0.36683-0.50022 2.7512-0.46687 1.1839 0.0167 2.1676-0.0167 2.1676-0.0834s0.35015 0 0.767 0.15007c0.65029 0.21676 0.80035 0.21676 0.91707 0.0334 0.20009-0.33348 0.11672-0.5169-0.48355-0.91707-0.70031-0.48355-2.1509-0.73366-4.0018-0.68364-1.8175 0.0334-1.7674 0.11672-1.0505-1.8675 0.70031-1.9008 1.7174-3.5516 3.1014-5.0022 1.0004-1.0505 1.2005-1.3339 1.0671-1.5674-0.18341-0.30013-0.0834-2.8346 0.11672-3.1514 0.15007-0.23343 0.46687 0.35016 0.8337 1.484zm21.576 27.912c0 0.0834-0.0667 0.15007-0.16674 0.15007-0.0834 0-0.16674-0.11672-0.16674-0.26678 0-0.1334 0.0834-0.20009 0.16674-0.15007 0.10004 0.05 0.16674 0.16674 0.16674 0.26678zm0.15007 1.3673c0.0167 0.16674-0.05 0.25011-0.15007 0.20009-0.0834-0.05-0.16674-0.35015-0.15007-0.63361 0-0.4502 0.0333-0.48355 0.15007-0.20009 0.0834 0.18341 0.15007 0.46687 0.15007 0.63361zm-39.101 0.36683c-0.0667 0.13339-0.16674 0.21676-0.23344 0.16674-0.0834-0.05-0.16674 0.0167-0.21676 0.11672-0.0333 0.11672-0.13339 0.16674-0.20009 0.0834-0.0834-0.0667 0-0.23344 0.18341-0.36683 0.41685-0.31681 0.58359-0.31681 0.46687 0zm39.284 0.58359c0 0.0834-0.0333 0.16674-0.0667 0.16674-0.05 0-0.13339-0.0834-0.18341-0.16674-0.05-0.10004-0.0167-0.16674 0.0667-0.16674 0.10004 0 0.18341 0.0667 0.18341 0.16674zm0.15007 1.1505c0.0333 0.43352-0.21676 0.0167-0.26678-0.4502-0.0334-0.3835-0.0167-0.40018 0.11672-0.11672 0.0834 0.18341 0.15007 0.43352 0.15007 0.56692z"/>
    <path d="m31.53 36.78c0 0.18342 0.05 0.23344 0.10004 0.10005 0.05-0.11672 0.0334-0.26679-0.0167-0.31681-0.05-0.0667-0.10004 0.0333-0.0834 0.21676z"/>
    <path d="m13.85 39.33c-0.0167 0.40017 0.0334 0.53356 0.15007 0.41685 0.11672-0.11672 0.11672-0.31681 0.0167-0.58359-0.15007-0.38351-0.16674-0.36683-0.16674 0.16674z"/>
    <path d="m26.01 41.01c-0.50022 0.18341-1.0671 0.41685-1.2506 0.53357-0.4502 0.26678-2.9513 0.3835-3.3515 0.15006-0.26678-0.13339-0.16674-0.18341 0.51689-0.18341 0.48355-0.0167 0.71698-0.0667 0.55024-0.13339-0.3835-0.15007-5.6858-0.26679-6.1194-0.11672-0.60026 0.18341-0.23344 1.4006 0.43352 1.4173 0.10004 0 0.23344 0.15007 0.30013 0.31681 0.05 0.18341 0.73366 0.85037 1.5173 1.484 1.0838 0.86705 1.6674 1.2339 2.3844 1.434 2.7012 0.75033 4.552-0.0667 5.8192-2.6012 0.3835-0.767 0.70031-1.484 0.70031-1.6007 0-0.10005 0.0667-0.20009 0.15007-0.20009 0.0834 0 0.18341 0.10004 0.23344 0.20009 0.11672 0.33348 0.30013 0.0667 0.33348-0.46687 0.0334-0.4502-0.0167-0.48355-0.63361-0.5169-0.36683-0.0333-1.0838 0.10005-1.584 0.28346zm-1.0505 3.118c-0.36683 0.36683-3.2848 0.51689-4.2018 0.21676-0.96709-0.31681-0.41685-0.50022 1.584-0.51689 0.96709 0 1.9342-0.0667 2.1676-0.1334 0.56692-0.18341 0.81703 0.0667 0.4502 0.43353z"/>
    <path d="m40.51 22.5c0 0.10004 0.23344 0.65029 0.53357 1.2172 0.30013 0.56692 0.51689 1.1505 0.50022 1.2839-0.0333 0.21676-0.0167 0.21676 0.11672 0.0167 0.16674-0.26678 0.0834-0.58359-0.56692-1.8341-0.41685-0.8337-0.58359-1.0338-0.58359-0.68363z"/>
  </g>
  <path d="m45.746 11.112a11.112 11.112 0 0 1-11.112 11.112 11.112 11.112 0 0 1-11.112-11.112 11.112 11.112 0 0 1 11.112-11.112 11.112 11.112 0 0 1 11.112 11.112z" fill-opacity=".48054"/>
  <path d="m41.004 13.657q0 2.2065-1.3746 3.774-1.5313 1.7604-4.0634 1.7604-2.2668 0-3.7379-1.471-1.7122-1.7242-1.7122-5.016 0-9.7787 8.8382-10.201l0.2291 1.9654q-5.4862 0.59082-6.077 5.643h0.19292q1.0008-1.2299 3.0988-1.2299 2.1945 0 3.4605 1.471 1.1455 1.3263 1.1455 3.3038zm-2.8697 0.42202q0-1.3143-0.68728-2.2065-0.78374-1.0128-2.1824-1.0128-1.3505 0-2.2307 1.0008 0 5.1968 2.6286 5.1968 1.1455 0 1.8448-0.92844 0.627-0.84403 0.627-2.0498z" fill="#001200" stroke-width="2.4676" aria-label="6"/>
  <path d="m40.21 13.128q0 2.2065-1.3746 3.774-1.5313 1.7604-4.0634 1.7604-2.2668 0-3.7379-1.471-1.7122-1.7242-1.7122-5.016 0-9.7787 8.8382-10.201l0.2291 1.9654q-5.4862 0.59082-6.077 5.643h0.19292q1.0008-1.2299 3.0988-1.2299 2.1945 0 3.4605 1.471 1.1455 1.3263 1.1455 3.3038zm-2.8697 0.42202q0-1.3143-0.68728-2.2065-0.78374-1.0128-2.1824-1.0128-1.3505 0-2.2307 1.0008 0 5.1968 2.6286 5.1968 1.1455 0 1.8448-0.92844 0.627-0.84403 0.627-2.0498z" fill="#0f0" stroke-width="2.4676" aria-label="6"/>
</svg>
