<?xml version="1.0" encoding="UTF-8" standalone="no"?>
<!-- Created with Inkscape (http://www.inkscape.org/) -->

<svg
   width="45.746693mm"
   height="51.708832mm"
   viewBox="0 0 45.746693 51.708832"
   version="1.1"
   id="svg1"
   inkscape:version="1.3 (0e150ed6c4, 2023-07-21)"
   sodipodi:docname="favicon.svg"
   xmlns:inkscape="http://www.inkscape.org/namespaces/inkscape"
   xmlns:sodipodi="http://sodipodi.sourceforge.net/DTD/sodipodi-0.dtd"
   xmlns="http://www.w3.org/2000/svg"
   xmlns:svg="http://www.w3.org/2000/svg"
   xmlns:rdf="http://www.w3.org/1999/02/22-rdf-syntax-ns#"
   xmlns:cc="http://creativecommons.org/ns#"
   xmlns:dc="http://purl.org/dc/elements/1.1/">
  <title
     id="title1">Komayō - Histoire 2</title>
  <sodipodi:namedview
     id="namedview1"
     pagecolor="#ffffff"
     bordercolor="#000000"
     borderopacity="0.25"
     inkscape:showpageshadow="2"
     inkscape:pageopacity="0.0"
     inkscape:pagecheckerboard="0"
     inkscape:deskcolor="#d1d1d1"
     inkscape:document-units="mm"
     inkscape:zoom="0.76167929"
     inkscape:cx="61.70576"
     inkscape:cy="21.662661"
     inkscape:window-width="1920"
     inkscape:window-height="1111"
     inkscape:window-x="-9"
     inkscape:window-y="-9"
     inkscape:window-maximized="1"
     inkscape:current-layer="layer1" />
  <defs
     id="defs1" />
  <g
     inkscape:label="Calque 1"
     inkscape:groupmode="layer"
     id="layer1"
     transform="translate(-88.635417,-142.875)">
    <path
       id="ellipse1"
       style="fill:#f9f9f7;fill-rule:evenodd;stroke-width:0.181411"
       d="m 124.32551,174.61864 a 13.497271,18.177773 0 0 1 -13.49727,18.17777 13.497271,18.177773 0 0 1 -13.497271,-18.17777 13.497271,18.177773 0 0 1 13.497271,-18.17778 13.497271,18.177773 0 0 1 13.49727,18.17778 z" />
    <path
       d="m 103.64183,151.63213 c -2.11757,0.46687 -3.884991,1.25054 -4.918766,2.15092 -0.933733,0.81702 -1.05045,0.96708 -1.167166,1.4006 -0.116717,0.50022 -0.817016,1.20052 -1.18384,1.20052 -0.13339,0 -0.283454,0.10004 -0.333476,0.23343 -0.05002,0.13339 -0.250107,0.28345 -0.450192,0.33348 -0.433519,0.10004 -2.200941,1.90081 -2.801198,2.85121 -0.516887,0.80035 -1.483968,2.85122 -1.483968,3.15135 0,0.10005 -0.06669,0.26678 -0.150064,0.36683 -0.200085,0.21676 -1.10047,3.06797 -1.417272,4.56862 -0.150065,0.68362 -0.466867,1.86746 -0.683626,2.60111 l -0.416845,1.36725 v 22.70971 h 15.173153 l -0.10004,-1.41727 c -0.10004,-1.20052 -0.0834,-1.41728 0.13339,-1.41728 0.30013,0 0.85036,0.56691 0.68362,0.71698 -0.05,0.0667 -0.0167,0.11671 0.0834,0.11671 0.20009,0 0.51689,0.85037 0.56691,1.55067 l 0.0333,0.46686 3.4348,-0.05 3.41813,-0.05 1.3339,-0.71697 c 0.73365,-0.3835 1.4006,-0.7003 1.48397,-0.7003 0.0834,0 0.10004,0.33347 0.05,0.75032 l -0.11671,0.75032 h 16.04019 l -0.10004,-0.41685 c -0.05,-0.23343 -0.15007,-0.61693 -0.20009,-0.88371 -0.0834,-0.43352 -0.0834,-0.43352 0.16674,-0.13339 0.15006,0.18341 0.3168,0.56691 0.36682,0.88371 0.0834,0.4502 0.18341,0.55024 0.51689,0.55024 h 0.40017 l -0.05,-5.88585 c -0.0333,-3.83497 -0.11672,-5.98589 -0.23343,-6.13596 -0.0834,-0.13339 -0.16674,-0.50021 -0.15007,-0.81701 0.0167,-0.31681 -0.0333,-0.71698 -0.11671,-0.86704 -0.0834,-0.15006 -0.25011,-0.90039 -0.40018,-1.66738 -0.26678,-1.4006 -0.46686,-2.26764 -1.36725,-5.55237 -0.46686,-1.70073 -0.76699,-3.21805 -0.61693,-3.06798 0.0334,0.0333 0.25011,0.40017 0.48354,0.81701 0.46687,0.81702 0.51689,0.767 0.25011,-0.2501 -0.0834,-0.36683 -0.20009,-0.90039 -0.25011,-1.16717 -0.05,-0.28345 -0.2501,-0.75032 -0.43352,-1.03377 -0.16673,-0.30013 -0.28345,-0.61694 -0.21676,-0.71698 0.05,-0.0834 0.0167,-0.16674 -0.0667,-0.16674 -0.10004,0 -0.18341,-0.0834 -0.18341,-0.20008 0,-0.56691 -0.91706,-3.03463 -1.41728,-3.8183 -0.3168,-0.48354 -0.58358,-0.98375 -0.58358,-1.0838 0,-0.18341 -0.25011,-0.66695 -1.35058,-2.56776 -0.13339,-0.23344 -0.65027,-0.95041 -1.16716,-1.58401 -0.50022,-0.65028 -1.20051,-1.61736 -1.53399,-2.1676 -0.78367,-1.28388 -1.0171,-1.55066 -2.0342,-2.26763 -0.93374,-0.65028 -2.05088,-1.20052 -3.91835,-1.90082 -0.68362,-0.2501 -1.40059,-0.51688 -1.58401,-0.60025 -0.40017,-0.16674 -2.56776,-0.28346 -7.00299,-0.40017 -2.55109,-0.05 -3.58487,-0.0167 -4.41856,0.16673 z m 4.76871,9.0372 c 0.25011,0.80034 0.3168,0.88371 0.80034,0.90039 0.83369,0.0333 1.16717,-0.0333 1.4673,-0.30013 0.15006,-0.13339 0.36682,-0.20009 0.45019,-0.13339 0.10004,0.05 0.18341,0.0167 0.18341,-0.0834 0,-0.10004 0.0667,-0.15006 0.15006,-0.10004 0.0834,0.05 0.11672,0.2501 0.0667,0.43352 -0.05,0.18341 0,0.33347 0.10004,0.33347 0.10004,0 0.18341,0.0667 0.18341,0.15007 0,0.0667 0.53356,0.71697 1.20052,1.41727 0.65027,0.7003 1.51731,1.81744 1.93416,2.48439 0.81701,1.28389 1.86746,3.48483 1.86746,3.86832 0,0.13339 -0.30013,0.31681 -0.7003,0.43352 -1.46729,0.3835 -2.63446,1.31723 -2.63446,2.06755 v 0.35015 l 1.55067,-0.38349 c 2.31765,-0.56691 2.351,-0.56691 2.95126,0.61693 0.26678,0.55023 0.50021,1.03377 0.50021,1.08379 0,0.05 -0.28345,0.0834 -0.6336,0.0834 -1.41728,0 -3.21805,1.10047 -2.95126,1.80077 0.05,0.13339 -0.0167,0.36683 -0.13339,0.51689 -0.25011,0.28345 -0.31681,0.90039 -0.0834,0.75032 0.0667,-0.05 0.2501,0.23343 0.41684,0.61693 0.25011,0.63361 0.28346,0.66695 0.40017,0.35015 0.0834,-0.20008 0.23344,-0.3835 0.35015,-0.3835 0.91706,-0.11671 1.31723,-0.10004 1.38393,0.0334 0.05,0.0667 0.23343,0 0.40017,-0.16674 0.20008,-0.20008 0.51689,-0.30012 0.83369,-0.28345 0.28345,0.0167 0.51689,-0.0167 0.51689,-0.10004 0,-0.0667 0.26678,-0.11672 0.61693,-0.0834 0.51688,0.0333 0.6336,0.11671 0.85036,0.61693 0.13339,0.3168 0.35015,1.45062 0.46687,2.50107 0.13339,1.05045 0.26678,2.08422 0.3168,2.28431 0.0667,0.2501 -0.0333,0.50021 -0.28346,0.75032 -0.46686,0.46686 -1.46729,1.70073 -2.88456,3.55152 -1.7174,2.25096 -3.25139,3.90166 -4.08508,4.3852 -0.41685,0.23344 -0.80035,0.51689 -0.86704,0.61694 -0.0834,0.10004 -0.13339,0.05 -0.13339,-0.1334 0,-0.23343 -0.15007,-0.28345 -0.81702,-0.28345 -0.56691,0 -0.85036,0.0667 -0.91706,0.25011 -0.10004,0.28345 -0.5669,0.3168 -1.13381,0.10004 -0.21676,-0.0834 -0.95041,-0.36682 -1.63404,-0.61693 -2.15092,-0.76699 -5.55237,-3.21804 -5.66909,-4.08508 -0.0667,-0.45019 0,-0.66695 0.16674,-0.56691 0.20009,0.13339 0.20009,-0.26678 -0.0167,-1.25053 -0.0834,-0.41685 -0.18341,-0.90039 -0.20009,-1.0838 -0.0333,-0.18341 -0.18341,-0.60026 -0.33347,-0.91706 -0.3835,-0.85036 -0.68363,-4.98546 -0.3835,-5.28559 0.15006,-0.15007 3.40145,0.45019 4.33519,0.80034 0.46686,0.16674 0.83369,0.30013 0.85036,0.26678 0.0167,-0.0167 0.10004,-0.3168 0.20009,-0.65028 0.18341,-0.60025 0.15006,-0.65028 -0.48354,-1.38392 -0.80035,-0.90039 -1.7841,-1.25054 -3.5682,-1.25054 -0.75032,0 -1.25053,-0.0834 -1.36725,-0.21676 -0.25011,-0.30013 -0.3168,-2.38435 -0.0834,-2.33433 0.11672,0.0334 0.23344,-0.10004 0.30013,-0.26678 0.15006,-0.46687 0.36682,-0.50021 2.75118,-0.46687 1.18384,0.0167 2.16759,-0.0167 2.16759,-0.0834 0,-0.0667 0.35015,0 0.767,0.15006 0.65027,0.21676 0.80034,0.21676 0.91705,0.0333 0.20009,-0.33348 0.11672,-0.51689 -0.48354,-0.91706 -0.7003,-0.48354 -2.15092,-0.73365 -4.00171,-0.68363 -1.81744,0.0333 -1.76742,0.11672 -1.05045,-1.86746 0.7003,-1.90082 1.7174,-3.55152 3.10133,-5.00214 1.00043,-1.05045 1.20051,-1.3339 1.06712,-1.56734 -0.18341,-0.30013 -0.0834,-2.83454 0.11672,-3.15135 0.15006,-0.23343 0.46687,0.35015 0.83369,1.48397 z m 21.57589,27.91194 c 0,0.0834 -0.0667,0.15006 -0.16674,0.15006 -0.0834,0 -0.16673,-0.11672 -0.16673,-0.26678 0,-0.13339 0.0834,-0.20009 0.16673,-0.15006 0.10005,0.05 0.16674,0.16673 0.16674,0.26678 z m 0.15007,1.36725 c 0.0167,0.16674 -0.05,0.25011 -0.15007,0.20008 -0.0834,-0.05 -0.16674,-0.35015 -0.15006,-0.6336 0,-0.45019 0.0333,-0.48354 0.15006,-0.20009 0.0834,0.18342 0.15007,0.46687 0.15007,0.63361 z m -39.100056,0.36682 c -0.0667,0.13339 -0.166738,0.21676 -0.233434,0.16674 -0.08337,-0.05 -0.166737,0.0167 -0.216759,0.11672 -0.03335,0.11671 -0.13339,0.16673 -0.200085,0.0834 -0.08337,-0.0667 0,-0.23344 0.183411,-0.36683 0.416845,-0.3168 0.583583,-0.3168 0.466867,0 z m 39.283466,0.58358 c 0,0.0834 -0.0333,0.16674 -0.0667,0.16674 -0.05,0 -0.13339,-0.0834 -0.18341,-0.16674 -0.05,-0.10004 -0.0167,-0.16673 0.0667,-0.16673 0.10004,0 0.18341,0.0667 0.18341,0.16673 z m 0.15006,1.1505 c 0.0334,0.43352 -0.21676,0.0167 -0.26678,-0.4502 -0.0334,-0.38349 -0.0167,-0.40017 0.11672,-0.11671 0.0834,0.18341 0.15006,0.43352 0.15006,0.56691 z"
       id="path1-1"
       style="stroke-width:0.166738" />
    <path
       d="m 120.16557,179.66079 c 0,0.18341 0.05,0.23343 0.10004,0.10004 0.05,-0.11672 0.0333,-0.26678 -0.0167,-0.3168 -0.05,-0.0667 -0.10004,0.0333 -0.0834,0.21676 z"
       id="path2-7"
       style="stroke-width:0.166738" />
    <path
       d="m 102.49134,182.21188 c -0.0167,0.40017 0.0334,0.53356 0.15007,0.41684 0.11671,-0.11671 0.11671,-0.3168 0.0167,-0.58358 -0.15006,-0.3835 -0.16674,-0.36682 -0.16674,0.16674 z"
       id="path3-69"
       style="stroke-width:0.166738" />
    <path
       d="m 114.64654,183.89593 c -0.50022,0.18341 -1.06712,0.41685 -1.25054,0.53356 -0.45019,0.26678 -2.95126,0.3835 -3.35143,0.15007 -0.26678,-0.13339 -0.16674,-0.18342 0.51689,-0.18342 0.48354,-0.0167 0.71697,-0.0667 0.55023,-0.13339 -0.38349,-0.15006 -5.68576,-0.26678 -6.11928,-0.11671 -0.60026,0.18341 -0.23343,1.4006 0.43352,1.41727 0.10004,0 0.23343,0.15006 0.30013,0.3168 0.05,0.18341 0.73364,0.85037 1.51731,1.48397 1.0838,0.86704 1.66738,1.23386 2.38436,1.43395 2.70115,0.75032 4.55194,-0.0667 5.81915,-2.60112 0.3835,-0.76699 0.7003,-1.48396 0.7003,-1.60068 0,-0.10004 0.0667,-0.20009 0.15006,-0.20009 0.0834,0 0.18342,0.10005 0.23344,0.20009 0.11671,0.33348 0.30013,0.0667 0.33347,-0.46687 0.0333,-0.45019 -0.0167,-0.48354 -0.6336,-0.51688 -0.36682,-0.0334 -1.0838,0.10004 -1.58401,0.28345 z m -1.05045,3.118 c -0.36682,0.36682 -3.28474,0.51689 -4.2018,0.21676 -0.96708,-0.3168 -0.41684,-0.50021 1.58401,-0.51689 0.96708,0 1.93416,-0.0667 2.1676,-0.13339 0.56691,-0.18341 0.81701,0.0667 0.45019,0.43352 z"
       id="path4-5"
       style="stroke-width:0.166738" />
    <path
       d="m 129.15274,165.38802 c 0,0.10004 0.23343,0.65027 0.53356,1.21718 0.30013,0.56691 0.51689,1.1505 0.50022,1.28389 -0.0334,0.21676 -0.0167,0.21676 0.11671,0.0167 0.16674,-0.26678 0.0834,-0.58358 -0.56691,-1.83412 -0.41684,-0.83369 -0.58358,-1.03377 -0.58358,-0.68362 z"
       id="path5-8"
       style="stroke-width:0.166738" />
    <path
       id="path10"
       style="fill-opacity:0.480545;stroke-width:2.4675;stroke-opacity:0"
       d="m 134.38211,153.9875 a 11.1125,11.1125 0 0 1 -11.1125,11.1125 11.1125,11.1125 0 0 1 -11.1125,-11.1125 11.1125,11.1125 0 0 1 11.1125,-11.1125 11.1125,11.1125 0 0 1 11.1125,11.1125 z" />
    <path
       d="m 130.17337,158.30275 -0.25321,2.58037 h -9.176 l 0.25322,-2.42362 q 5.0884,-2.83359 5.0884,-5.69129 0,-2.37539 -3.29179,-2.37539 -0.88022,0 -1.86896,0.16881 l 0.2291,-2.24275 q 1.04903,-0.26528 2.97828,-0.26528 2.45979,0 3.74998,1.04903 1.29019,1.04903 1.29019,2.85771 0,2.26686 -1.6881,3.89467 -1.67603,1.6278 -3.55705,2.47185 v 0.15675 q 2.66477,0 6.24594,-0.18086 z"
       id="text4-4-8"
       style="font-weight:bold;font-size:24.6944px;font-family:Candara;-inkscape-font-specification:'Candara, Bold';fill:#000080;stroke-width:2.4676"
       aria-label="2" />
    <path
       d="m 129.37966,157.77366 -0.25322,2.58037 h -9.17599 l 0.25321,-2.42362 q 5.0884,-2.83358 5.0884,-5.69128 0,-2.37539 -3.29178,-2.37539 -0.88022,0 -1.86896,0.16881 l 0.22909,-2.24276 q 1.04903,-0.26527 2.97828,-0.26527 2.4598,0 3.74998,1.04903 1.29019,1.04903 1.29019,2.8577 0,2.26687 -1.68809,3.89468 -1.67604,1.6278 -3.55706,2.47185 v 0.15675 q 2.66478,0 6.24595,-0.18087 z"
       id="text4-4"
       style="font-weight:bold;font-size:24.6944px;font-family:Candara;-inkscape-font-specification:'Candara, Bold';fill:#00ffff;stroke-width:2.4676"
       aria-label="2" />
  </g>
  <metadata
     id="metadata1">
    <rdf:RDF>
      <cc:Work
         rdf:about="">
        <dc:title>Komayō - Histoire 2</dc:title>
      </cc:Work>
    </rdf:RDF>
  </metadata>
</svg>
