<?xml version="1.0" encoding="UTF-8"?>
<svg width="45.747mm" height="51.709mm" version="1.1" viewBox="0 0 45.747 51.709" xmlns="http://www.w3.org/2000/svg">
  <title>Komayō - Episode 2</title>
  <g transform="translate(-88.635 -142.88)">
    <path d="m124.33 174.62a13.497 18.178 0 0 1-13.497 18.178 13.497 18.178 0 0 1-13.497-18.178 13.497 18.178 0 0 1 13.497-18.178 13.497 18.178 0 0 1 13.497 18.178z" fill="#f9f9f7" fill-rule="evenodd" stroke-width=".18141"/>
    <g stroke-width=".16674">
      <path d="m103.64 151.63c-2.1176 0.46687-3.885 1.2505-4.9188 2.1509-0.93373 0.81702-1.0504 0.96708-1.1672 1.4006-0.11672 0.50022-0.81702 1.2005-1.1838 1.2005-0.13339 0-0.28345 0.10004-0.33348 0.23343-0.05002 0.13339-0.25011 0.28345-0.45019 0.33348-0.43352 0.10004-2.2009 1.9008-2.8012 2.8512-0.51689 0.80035-1.484 2.8512-1.484 3.1514 0 0.10005-0.06669 0.26678-0.15006 0.36683-0.20008 0.21676-1.1005 3.068-1.4173 4.5686-0.15006 0.68362-0.46687 1.8675-0.68363 2.6011l-0.41684 1.3672v22.71h15.173l-0.10004-1.4173c-0.10004-1.2005-0.0834-1.4173 0.13339-1.4173 0.30013 0 0.85036 0.56691 0.68362 0.71698-0.05 0.0667-0.0167 0.11671 0.0834 0.11671 0.20009 0 0.51689 0.85037 0.56691 1.5507l0.0333 0.46686 3.4348-0.05 3.4181-0.05 1.3339-0.71697c0.73365-0.3835 1.4006-0.7003 1.484-0.7003 0.0834 0 0.10004 0.33347 0.05 0.75032l-0.11671 0.75032h16.04l-0.10004-0.41685c-0.05-0.23343-0.15007-0.61693-0.20009-0.88371-0.0834-0.43352-0.0834-0.43352 0.16674-0.13339 0.15006 0.18341 0.3168 0.56691 0.36682 0.88371 0.0834 0.4502 0.18341 0.55024 0.51689 0.55024h0.40017l-0.05-5.8858c-0.0333-3.835-0.11672-5.9859-0.23343-6.136-0.0834-0.13339-0.16674-0.50021-0.15007-0.81701 0.0167-0.31681-0.0333-0.71698-0.11671-0.86704-0.0834-0.15006-0.25011-0.90039-0.40018-1.6674-0.26678-1.4006-0.46686-2.2676-1.3672-5.5524-0.46686-1.7007-0.76699-3.218-0.61693-3.068 0.0334 0.0333 0.25011 0.40017 0.48354 0.81701 0.46687 0.81702 0.51689 0.767 0.25011-0.2501-0.0834-0.36683-0.20009-0.90039-0.25011-1.1672-0.05-0.28345-0.2501-0.75032-0.43352-1.0338-0.16673-0.30013-0.28345-0.61694-0.21676-0.71698 0.05-0.0834 0.0167-0.16674-0.0667-0.16674-0.10004 0-0.18341-0.0834-0.18341-0.20008 0-0.56691-0.91706-3.0346-1.4173-3.8183-0.3168-0.48354-0.58358-0.98375-0.58358-1.0838 0-0.18341-0.25011-0.66695-1.3506-2.5678-0.13339-0.23344-0.65027-0.95041-1.1672-1.584-0.50022-0.65028-1.2005-1.6174-1.534-2.1676-0.78367-1.2839-1.0171-1.5507-2.0342-2.2676-0.93374-0.65028-2.0509-1.2005-3.9184-1.9008-0.68362-0.2501-1.4006-0.51688-1.584-0.60025-0.40017-0.16674-2.5678-0.28346-7.003-0.40017-2.5511-0.05-3.5849-0.0167-4.4186 0.16673zm4.7687 9.0372c0.25011 0.80034 0.3168 0.88371 0.80034 0.90039 0.83369 0.0333 1.1672-0.0333 1.4673-0.30013 0.15006-0.13339 0.36682-0.20009 0.45019-0.13339 0.10004 0.05 0.18341 0.0167 0.18341-0.0834 0-0.10004 0.0667-0.15006 0.15006-0.10004 0.0834 0.05 0.11672 0.2501 0.0667 0.43352-0.05 0.18341 0 0.33347 0.10004 0.33347s0.18341 0.0667 0.18341 0.15007c0 0.0667 0.53356 0.71697 1.2005 1.4173 0.65027 0.7003 1.5173 1.8174 1.9342 2.4844 0.81701 1.2839 1.8675 3.4848 1.8675 3.8683 0 0.13339-0.30013 0.31681-0.7003 0.43352-1.4673 0.3835-2.6345 1.3172-2.6345 2.0676v0.35015l1.5507-0.38349c2.3176-0.56691 2.351-0.56691 2.9513 0.61693 0.26678 0.55023 0.50021 1.0338 0.50021 1.0838 0 0.05-0.28345 0.0834-0.6336 0.0834-1.4173 0-3.218 1.1005-2.9513 1.8008 0.05 0.13339-0.0167 0.36683-0.13339 0.51689-0.25011 0.28345-0.31681 0.90039-0.0834 0.75032 0.0667-0.05 0.2501 0.23343 0.41684 0.61693 0.25011 0.63361 0.28346 0.66695 0.40017 0.35015 0.0834-0.20008 0.23344-0.3835 0.35015-0.3835 0.91706-0.11671 1.3172-0.10004 1.3839 0.0334 0.05 0.0667 0.23343 0 0.40017-0.16674 0.20008-0.20008 0.51689-0.30012 0.83369-0.28345 0.28345 0.0167 0.51689-0.0167 0.51689-0.10004 0-0.0667 0.26678-0.11672 0.61693-0.0834 0.51688 0.0333 0.6336 0.11671 0.85036 0.61693 0.13339 0.3168 0.35015 1.4506 0.46687 2.5011 0.13339 1.0504 0.26678 2.0842 0.3168 2.2843 0.0667 0.2501-0.0333 0.50021-0.28346 0.75032-0.46686 0.46686-1.4673 1.7007-2.8846 3.5515-1.7174 2.251-3.2514 3.9017-4.0851 4.3852-0.41685 0.23344-0.80035 0.51689-0.86704 0.61694-0.0834 0.10004-0.13339 0.05-0.13339-0.1334 0-0.23343-0.15007-0.28345-0.81702-0.28345-0.56691 0-0.85036 0.0667-0.91706 0.25011-0.10004 0.28345-0.5669 0.3168-1.1338 0.10004-0.21676-0.0834-0.95041-0.36682-1.634-0.61693-2.1509-0.76699-5.5524-3.218-5.6691-4.0851-0.0667-0.45019 0-0.66695 0.16674-0.56691 0.20009 0.13339 0.20009-0.26678-0.0167-1.2505-0.0834-0.41685-0.18341-0.90039-0.20009-1.0838-0.0333-0.18341-0.18341-0.60026-0.33347-0.91706-0.3835-0.85036-0.68363-4.9855-0.3835-5.2856 0.15006-0.15007 3.4014 0.45019 4.3352 0.80034 0.46686 0.16674 0.83369 0.30013 0.85036 0.26678 0.0167-0.0167 0.10004-0.3168 0.20009-0.65028 0.18341-0.60025 0.15006-0.65028-0.48354-1.3839-0.80035-0.90039-1.7841-1.2505-3.5682-1.2505-0.75032 0-1.2505-0.0834-1.3672-0.21676-0.25011-0.30013-0.3168-2.3844-0.0834-2.3343 0.11672 0.0334 0.23344-0.10004 0.30013-0.26678 0.15006-0.46687 0.36682-0.50021 2.7512-0.46687 1.1838 0.0167 2.1676-0.0167 2.1676-0.0834s0.35015 0 0.767 0.15006c0.65027 0.21676 0.80034 0.21676 0.91705 0.0333 0.20009-0.33348 0.11672-0.51689-0.48354-0.91706-0.7003-0.48354-2.1509-0.73365-4.0017-0.68363-1.8174 0.0333-1.7674 0.11672-1.0504-1.8675 0.7003-1.9008 1.7174-3.5515 3.1013-5.0021 1.0004-1.0504 1.2005-1.3339 1.0671-1.5673-0.18341-0.30013-0.0834-2.8345 0.11672-3.1514 0.15006-0.23343 0.46687 0.35015 0.83369 1.484zm21.576 27.912c0 0.0834-0.0667 0.15006-0.16674 0.15006-0.0834 0-0.16673-0.11672-0.16673-0.26678 0-0.13339 0.0834-0.20009 0.16673-0.15006 0.10005 0.05 0.16674 0.16673 0.16674 0.26678zm0.15007 1.3672c0.0167 0.16674-0.05 0.25011-0.15007 0.20008-0.0834-0.05-0.16674-0.35015-0.15006-0.6336 0-0.45019 0.0333-0.48354 0.15006-0.20009 0.0834 0.18342 0.15007 0.46687 0.15007 0.63361zm-39.1 0.36682c-0.0667 0.13339-0.16674 0.21676-0.23343 0.16674-0.08337-0.05-0.16674 0.0167-0.21676 0.11672-0.03335 0.11671-0.13339 0.16673-0.20008 0.0834-0.08337-0.0667 0-0.23344 0.18341-0.36683 0.41684-0.3168 0.58358-0.3168 0.46687 0zm39.283 0.58358c0 0.0834-0.0333 0.16674-0.0667 0.16674-0.05 0-0.13339-0.0834-0.18341-0.16674-0.05-0.10004-0.0167-0.16673 0.0667-0.16673 0.10004 0 0.18341 0.0667 0.18341 0.16673zm0.15006 1.1505c0.0334 0.43352-0.21676 0.0167-0.26678-0.4502-0.0334-0.38349-0.0167-0.40017 0.11672-0.11671 0.0834 0.18341 0.15006 0.43352 0.15006 0.56691z"/>
      <path d="m120.17 179.66c0 0.18341 0.05 0.23343 0.10004 0.10004 0.05-0.11672 0.0333-0.26678-0.0167-0.3168-0.05-0.0667-0.10004 0.0333-0.0834 0.21676z"/>
      <path d="m102.49 182.21c-0.0167 0.40017 0.0334 0.53356 0.15007 0.41684 0.11671-0.11671 0.11671-0.3168 0.0167-0.58358-0.15006-0.3835-0.16674-0.36682-0.16674 0.16674z"/>
      <path d="m114.65 183.9c-0.50022 0.18341-1.0671 0.41685-1.2505 0.53356-0.45019 0.26678-2.9513 0.3835-3.3514 0.15007-0.26678-0.13339-0.16674-0.18342 0.51689-0.18342 0.48354-0.0167 0.71697-0.0667 0.55023-0.13339-0.38349-0.15006-5.6858-0.26678-6.1193-0.11671-0.60026 0.18341-0.23343 1.4006 0.43352 1.4173 0.10004 0 0.23343 0.15006 0.30013 0.3168 0.05 0.18341 0.73364 0.85037 1.5173 1.484 1.0838 0.86704 1.6674 1.2339 2.3844 1.434 2.7012 0.75032 4.5519-0.0667 5.8192-2.6011 0.3835-0.76699 0.7003-1.484 0.7003-1.6007 0-0.10004 0.0667-0.20009 0.15006-0.20009 0.0834 0 0.18342 0.10005 0.23344 0.20009 0.11671 0.33348 0.30013 0.0667 0.33347-0.46687 0.0333-0.45019-0.0167-0.48354-0.6336-0.51688-0.36682-0.0334-1.0838 0.10004-1.584 0.28345zm-1.0504 3.118c-0.36682 0.36682-3.2847 0.51689-4.2018 0.21676-0.96708-0.3168-0.41684-0.50021 1.584-0.51689 0.96708 0 1.9342-0.0667 2.1676-0.13339 0.56691-0.18341 0.81701 0.0667 0.45019 0.43352z"/>
      <path d="m129.15 165.39c0 0.10004 0.23343 0.65027 0.53356 1.2172s0.51689 1.1505 0.50022 1.2839c-0.0334 0.21676-0.0167 0.21676 0.11671 0.0167 0.16674-0.26678 0.0834-0.58358-0.56691-1.8341-0.41684-0.83369-0.58358-1.0338-0.58358-0.68362z"/>
    </g>
    <path d="m134.38 153.99a11.112 11.112 0 0 1-11.112 11.112 11.112 11.112 0 0 1-11.112-11.112 11.112 11.112 0 0 1 11.112-11.112 11.112 11.112 0 0 1 11.112 11.112z" fill-opacity=".48054" stroke-opacity="0"/>
    <path d="m130.17 158.3-0.25321 2.5804h-9.176l0.25322-2.4236q5.0884-2.8336 5.0884-5.6913 0-2.3754-3.2918-2.3754-0.88022 0-1.869 0.16881l0.2291-2.2428q1.049-0.26528 2.9783-0.26528 2.4598 0 3.75 1.049t1.2902 2.8577q0 2.2669-1.6881 3.8947-1.676 1.6278-3.557 2.4718v0.15675q2.6648 0 6.2459-0.18086z" fill="#0ff" stroke-width="2.4676" aria-label="2"/>
    <path d="m129.38 157.77-0.25322 2.5804h-9.176l0.25321-2.4236q5.0884-2.8336 5.0884-5.6913 0-2.3754-3.2918-2.3754-0.88022 0-1.869 0.16881l0.22909-2.2428q1.049-0.26527 2.9783-0.26527 2.4598 0 3.75 1.049 1.2902 1.049 1.2902 2.8577 0 2.2669-1.6881 3.8947-1.676 1.6278-3.5571 2.4718v0.15675q2.6648 0 6.246-0.18087z" fill="#000080" stroke-width="2.4676" aria-label="2"/>
  </g>
</svg>
